<svg xmlns="http://www.w3.org/2000/svg" width="9" height="15" viewBox="0 0 9 15">
    <g fill="#005DD6" fill-rule="evenodd">
        <path d="M4.494 12.327l3.488-3.25c.106-.103.213-.103.32 0l.621.584c.107.104.107.208 0 .312l-4.268 3.969a.22.22 0 0 1-.16.058.22.22 0 0 1-.16-.058l-4.27-3.97c-.093-.09-.086-.194.02-.31l.602-.584c.107-.104.213-.104.32 0l3.487 3.249zM4.506 2.673l-3.488 3.25c-.106.103-.213.103-.32 0l-.621-.584c-.107-.104-.107-.208 0-.312l4.268-3.969A.22.22 0 0 1 4.505 1c.067 0 .12.02.16.058l4.27 3.97c.093.09.086.194-.02.31l-.602.584c-.107.104-.213.104-.32 0L4.506 2.673z"/>
    </g>
</svg>
