<svg xmlns="http://www.w3.org/2000/svg" xmlns:xlink="http://www.w3.org/1999/xlink" width="33" height="33" viewBox="0 0 33 33">
    <defs>
        <ellipse id="a" cx="16.5" cy="16.298" rx="16.5" ry="16.298"/>
    </defs>
    <g fill="none" fill-rule="evenodd">
        <mask id="b" fill="#fff">
            <use xlink:href="#a"/>
        </mask>
        <use fill="#004494" xlink:href="#a"/>
        <path fill="#E5EFF5" fill-rule="nonzero" d="M29.385 27.232c-.626-3.192-7.758-2.852-9.833-5.352-.438-.527-.438-.527-.145-2.486.501-2.193.955-.832 1.671-5.205.602-3.673-.682-6.829-4.578-6.829-3.896 0-5.18 3.156-4.578 6.829.716 4.373 1.17 3.012 1.67 5.205.294 1.959.294 1.959-.144 2.486-2.075 2.5-9.207 2.16-9.833 5.352-.074.377-.421 2.468-.421 2.468s10.514 6.05 15.93 6.05 10.682-6.05 10.682-6.05-.347-2.09-.421-2.468z" mask="url(#b)"/>
    </g>
</svg>
