<svg xmlns="http://www.w3.org/2000/svg" width="20" height="20" viewBox="0 0 20 20">
    <path fill="#333" fill-rule="evenodd" d="M6.226 9.36c.84 0 1.626-.114 2.358-.344a5.943 5.943 0 0 0 1.904-.974c.537-.42.957-.925 1.26-1.516.303-.59.45-1.243.44-1.956a3.55 3.55 0 0 0-.477-1.787 4.742 4.742 0 0 0-1.296-1.45A6.552 6.552 0 0 0 8.489.359 7.62 7.62 0 0 0 6.123 0c-.85 0-1.645.12-2.388.359a6.744 6.744 0 0 0-1.948.974 4.67 4.67 0 0 0-1.31 1.45A3.55 3.55 0 0 0 0 4.57 4.994 4.994 0 0 0 .586 6.9c.195.36.444.693.747.996.303.302.654.556 1.055.761v.03c0 .341-.105.715-.315 1.12-.21.405-.374.706-.491.901h.015a.286.286 0 0 0-.022.059.308.308 0 0 0-.008.073c0 .098.032.18.096.249a.315.315 0 0 0 .3.095l.03-.007h.014c.303-.05.627-.156.974-.323.347-.166.676-.351.989-.556.312-.205.583-.4.813-.586.23-.186.378-.317.446-.396.137.02.257.032.36.037.102.005.207.007.314.007h.323zM4.849 8.35l-.601.498c-.068.088-.232.236-.49.446-.26.21-.52.393-.784.55.166-.45.258-.76.278-.93l.03-.257.043-.571-.513-.264c-.644-.332-1.118-.805-1.42-1.42C1.089 5.785.938 5.175.938 4.57c0-.508.134-.981.402-1.42.269-.44.64-.823 1.114-1.15a5.89 5.89 0 0 1 1.655-.777A6.925 6.925 0 0 1 6.123.937c.713 0 1.382.096 2.007.286A5.58 5.58 0 0 1 9.756 2c.459.327.823.71 1.091 1.15.269.439.403.912.403 1.42a3.22 3.22 0 0 1-.38 1.546 3.871 3.871 0 0 1-1.048 1.23 4.932 4.932 0 0 1-1.582.806c-.61.19-1.272.286-1.985.286h-.278a4.79 4.79 0 0 1-.616-.044L4.85 8.35zM15 8.35c0-.635-.134-1.197-.403-1.685-.268-.488-.71-.913-1.326-1.274-.019.166-.05.337-.095.512-.044.176-.09.342-.139.498.4.284.671.577.813.88.142.302.213.658.213 1.069 0 .507-.123.95-.367 1.325-.244.376-.644.706-1.2.99l-.455.219.03.644c.019.43.048.718.087.865-.459-.332-.779-.62-.96-.865l-.27-.366-.498.073c-.098.02-.242.03-.432.03h-.286c-.635 0-1.196-.076-1.685-.227a4.141 4.141 0 0 1-1.333-.696c.108-.01-.085-.015-.578-.015-.493 0-.75.01-.77.03a4.821 4.821 0 0 0 1.817 1.354c.371.162.77.284 1.194.367a7.06 7.06 0 0 0 1.355.124h.278c.098 0 .19-.002.279-.007.087-.005.19-.012.307-.022.108.137.425.425.952.864.528.44 1.05.703 1.568.791h.088a.298.298 0 0 0 .307-.307.24.24 0 0 0-.03-.118c-.097-.166-.204-.449-.321-.85a3.822 3.822 0 0 1-.176-1.054v-.03c.693-.35 1.206-.788 1.538-1.31.332-.523.498-1.126.498-1.81z"/>
</svg>
