<svg xmlns="http://www.w3.org/2000/svg" width="20" height="20" viewBox="0 0 20 20">
    <g fill="#333" fill-rule="evenodd">
        <path d="M14.361 2.152H.605C.27 2.152 0 1.732 0 1.215 0 .697.27.277.605.277H14.36c.334 0 .605.42.605.938s-.27.937-.605.937zM14.361 6.42H.605C.27 6.42 0 6 0 5.482c0-.517.27-.937.605-.937H14.36c.334 0 .605.42.605.938 0 .517-.27.937-.605.937zM14.361 10.684H.605c-.334 0-.605-.42-.605-.938s.27-.937.605-.937H14.36c.334 0 .605.42.605.937 0 .518-.27.938-.605.938zM7.483 14.947H.605c-.334 0-.605-.42-.605-.937 0-.518.27-.938.605-.938h6.878c.334 0 .605.42.605.938s-.27.938-.605.938z"/>
    </g>
</svg>
